<svg width="24" height="24" viewBox="0 0 24 24" fill="none" xmlns="http://www.w3.org/2000/svg">
<mask id="path-1-inside-1" fill="white">
<path fill-rule="evenodd" clip-rule="evenodd" d="M8 15.3004V10C8 8.89545 8.89544 8.00002 10 8.00002H15.3004C14.9659 4.63113 12.1236 2 8.66667 2C4.98477 2 2 4.98477 2 8.66667C2 12.1236 4.63112 14.9659 8 15.3004ZM8 17.3081C3.52504 16.9677 0 13.2288 0 8.66667C0 3.8802 3.8802 0 8.66667 0C13.2288 0 16.9677 3.52505 17.3081 8.00002H22C23.1046 8.00002 24 8.89545 24 10V22C24 23.1046 23.1046 24 22 24H10C8.89543 24 8 23.1046 8 22V17.3081Z"/>
</mask>
<path d="M8 15.3004L7.80241 17.2906L10 17.5088V15.3004H8ZM15.3004 8.00002V10H17.5088L17.2906 7.80243L15.3004 8.00002ZM8 17.3081H10V15.4544L8.15171 15.3138L8 17.3081ZM17.3081 8.00002L15.3138 8.15172L15.4544 10H17.3081V8.00002ZM10 15.3004V10H6V15.3004H10ZM10 10V6.00002C7.79087 6.00002 6 7.79088 6 10H10ZM10 10H15.3004V6.00002H10V10ZM17.2906 7.80243C16.8556 3.42073 13.1618 0 8.66667 0V4C11.0853 4 13.0763 5.84153 13.3102 8.19762L17.2906 7.80243ZM8.66667 0C3.8802 0 0 3.8802 0 8.66667H4C4 6.08934 6.08934 4 8.66667 4V0ZM0 8.66667C0 13.1618 3.42072 16.8556 7.80241 17.2906L8.1976 13.3102C5.84152 13.0763 4 11.0853 4 8.66667H0ZM-2 8.66667C-2 14.2825 2.33862 18.8832 7.8483 19.3023L8.15171 15.3138C4.71146 15.0521 2 12.1751 2 8.66667H-2ZM8.66667 -2C2.77563 -2 -2 2.77563 -2 8.66667H2C2 4.98477 4.98477 2 8.66667 2V-2ZM19.3023 7.84832C18.8832 2.33863 14.2826 -2 8.66667 -2V2C12.1751 2 15.0521 4.71146 15.3138 8.15172L19.3023 7.84832ZM17.3081 10H22V6.00002H17.3081V10ZM22 10H22H26C26 7.79089 24.2091 6.00002 22 6.00002V10ZM22 10V22H26V10H22ZM22 22H22V26C24.2091 26 26 24.2092 26 22H22ZM22 22H10V26H22V22ZM10 22H10H6C6 24.2092 7.79086 26 10 26V22ZM10 22V17.3081H6V22H10Z" fill="#333333" mask="url(#path-1-inside-1)"/>
</svg>
